<?xml version="1.0" encoding="UTF-8"?>
<svg version="1.1" xmlns="http://www.w3.org/2000/svg" width="111" height="111">
<path d="M0 0 C36.63 0 73.26 0 111 0 C111 36.63 111 73.26 111 111 C74.37 111 37.74 111 0 111 C0 74.37 0 37.74 0 0 Z " fill="#172F36" transform="translate(0,0)"/>
<path d="M0 0 C0.33 0 0.66 0 1 0 C2.71744539 17.00711302 0.66087587 27.48943969 -9.20654297 41.38183594 C-12.489328 46.17418371 -15.3338445 51.22966013 -18.25 56.25 C-20.1475 59.4675 -22.045 62.685 -24 66 C-7.5 66 9 66 26 66 C21.05 58.08 21.05 58.08 16 50 C12 43.0625 12 43.0625 10.375 40.16015625 C9.18159987 37.87646851 9.18159987 37.87646851 7 37 C6.690625 37.78375 6.38125 38.5675 6.0625 39.375 C5 42 5 42 4 44 C6.64 44.33 9.28 44.66 12 45 C12 45.66 12 46.32 12 47 C10.671875 48.15625 10.671875 48.15625 8.75 49.5 C4.86381544 52.30979531 1.17133869 55.29412587 -2.5 58.375 C-3.04043945 58.82810547 -3.58087891 59.28121094 -4.13769531 59.74804688 C-5.42646318 60.83044612 -6.71342832 61.91499122 -8 63 C-8 59.32965255 -6.9247108 57.9000569 -5 54.8125 C-4.443125 53.91144531 -3.88625 53.01039062 -3.3125 52.08203125 C-2.879375 51.39496094 -2.44625 50.70789062 -2 50 C-4.97 50 -7.94 50 -11 50 C-9.66323905 46.44047152 -8.07939665 43.24672254 -6.13671875 39.98046875 C-5.57919922 39.04009766 -5.02167969 38.09972656 -4.44726562 37.13085938 C-3.86654297 36.15955078 -3.28582031 35.18824219 -2.6875 34.1875 C-1.83381836 32.74793945 -1.83381836 32.74793945 -0.96289062 31.27929688 C2.28979525 25.80836139 5.60436269 20.38332745 9 15 C12.77130623 18.49821164 15.29111424 21.86704278 17.75 26.375 C18.43195919 27.60767654 19.11561905 28.83941342 19.80078125 30.0703125 C20.15479004 30.7087207 20.50879883 31.34712891 20.87353516 32.00488281 C23.19869958 36.1230544 25.66959419 40.15517631 28.11816406 44.20068359 C30.91292843 48.82585685 30.91292843 48.82585685 32 51 C32.66 50.01 33.32 49.02 34 48 C34.21398437 49.28003906 34.42796875 50.56007812 34.6484375 51.87890625 C35.90995087 57.5579413 38.59158408 62.02937144 41.625 66.9375 C42.64161537 68.61110306 43.65482284 70.28678257 44.6640625 71.96484375 C45.11217285 72.6930835 45.5602832 73.42132324 46.02197266 74.17163086 C47 76 47 76 47 78 C46.16506012 78.01030746 45.33012024 78.02061493 44.46987915 78.03123474 C36.61201027 78.12909975 28.75421858 78.23159839 20.89647865 78.33933926 C16.85646949 78.3945691 12.81645309 78.44798919 8.77636719 78.49731445 C4.87949595 78.54495713 0.98271391 78.59729989 -2.91405106 78.65294075 C-4.40281588 78.67336475 -5.89160516 78.69207776 -7.38041306 78.70907402 C-9.46121843 78.73311711 -11.54185475 78.76317159 -13.62255859 78.79467773 C-15.40126846 78.81799416 -15.40126846 78.81799416 -17.21591187 78.84178162 C-19.95638065 78.81329649 -19.95638065 78.81329649 -22 80 C-22 79.34 -22 78.68 -22 78 C-29.92 78 -37.84 78 -46 78 C-44.33412774 73.83531935 -42.45692921 70.14312638 -40.19140625 66.30859375 C-39.8240184 65.68146988 -39.45663055 65.05434601 -39.07810974 64.40821838 C-38.30398504 63.08863 -37.52816062 61.77003743 -36.75073242 60.45239258 C-35.56566404 58.44286528 -34.38694039 56.42971854 -33.20898438 54.41601562 C-32.45349949 53.12998826 -31.69765224 51.84417369 -30.94140625 50.55859375 C-30.59130997 49.96058456 -30.24121368 49.36257538 -29.88050842 48.7464447 C-28.45222869 46.33154946 -27.02140211 44.02722048 -25.28564453 41.81958008 C-23.23600923 38.91871949 -23.42615497 35.6856273 -23.3125 32.25 C-23.26125977 31.20392578 -23.26125977 31.20392578 -23.20898438 30.13671875 C-23.12691705 28.42502892 -23.06177081 26.7125424 -23 25 C-22.67 25.99 -22.34 26.98 -22 28 C-21.34 28 -20.68 28 -20 28 C-19.67 28.99 -19.34 29.98 -19 31 C-18.56655273 30.27409668 -18.13310547 29.54819336 -17.68652344 28.80029297 C-16.062573 26.08228078 -14.43725497 23.36509241 -12.81103516 20.6484375 C-12.11029889 19.4772115 -11.41009311 18.30566793 -10.71044922 17.13378906 C-9.69902158 15.43990027 -8.6854645 13.74728356 -7.671875 12.0546875 C-7.0644043 11.03874512 -6.45693359 10.02280273 -5.83105469 8.97607422 C-3.9535813 5.92455415 -2.05302151 2.93624733 0 0 Z " fill="#06F694" transform="translate(55,11)"/>
<path d="M0 0 C3.94984481 1.31661494 4.43697563 2.91425944 6.5390625 6.4609375 C7.20164063 7.57210937 7.86421875 8.68328125 8.546875 9.828125 C9.05831055 10.70114258 9.05831055 10.70114258 9.58007812 11.59179688 C10.61985054 13.36621223 11.67192258 15.13282651 12.7265625 16.8984375 C17.84561012 25.53683036 17.84561012 25.53683036 19 29 C2.5 29 -14 29 -31 29 C-29.58843021 25.47107553 -28.22615467 22.45137797 -26.375 19.1875 C-25.92898437 18.39730469 -25.48296875 17.60710937 -25.0234375 16.79296875 C-24.68570313 16.20128906 -24.34796875 15.60960937 -24 15 C-23.01 15 -22.02 15 -21 15 C-20.67 14.34 -20.34 13.68 -20 13 C-17.47946405 11.73973202 -16.1457902 12.08125555 -13.375 12.4375 C-12.55773437 12.53933594 -11.74046875 12.64117187 -10.8984375 12.74609375 C-10.27195312 12.82988281 -9.64546875 12.91367187 -9 13 C-10.56743458 17.31044511 -12.70786933 21.04467696 -15 25 C-14.57178955 24.61666504 -14.1435791 24.23333008 -13.70239258 23.83837891 C-11.74528336 22.09349909 -9.7790538 20.35922605 -7.8125 18.625 C-7.13896484 18.02171875 -6.46542969 17.4184375 -5.77148438 16.796875 C-2.35214712 13.79453009 0.53942571 11.2991964 5 10 C5 9.34 5 8.68 5 8 C2.03 8 -0.94 8 -4 8 C-2.68 5.36 -1.36 2.72 0 0 Z " fill="#203B43" transform="translate(62,48)"/>
<path d="M0 0 C3.6439414 1.21464713 3.98967974 2.14603573 5.91796875 5.3671875 C6.44970703 6.25277344 6.98144531 7.13835938 7.52929688 8.05078125 C8.35010742 9.44876953 8.35010742 9.44876953 9.1875 10.875 C9.74630859 11.79925781 10.30511719 12.72351563 10.88085938 13.67578125 C15 20.60639881 15 20.60639881 15 24 C9.74801061 24.35013263 9.74801061 24.35013263 7 24 C4.875 22.125 4.875 22.125 3 20 C-0.05429073 18.78715124 -0.05429073 18.78715124 -3 18 C-3.66 17.67 -4.32 17.34 -5 17 C-3.71372289 15.82739389 -2.42080217 14.6620717 -1.125 13.5 C-0.40570313 12.8503125 0.31359375 12.200625 1.0546875 11.53125 C3 10 3 10 5 10 C5 9.34 5 8.68 5 8 C2.03 8 -0.94 8 -4 8 C-2.68 5.36 -1.36 2.72 0 0 Z " fill="#17343B" transform="translate(62,48)"/>
<path d="M0 0 C0.33 0 0.66 0 1 0 C1 6.27 1 12.54 1 19 C1.99 19 2.98 19 4 19 C3.42502307 22.75123735 2.39051623 25.41997844 0.41796875 28.65234375 C-0.10216797 29.51150391 -0.62230469 30.37066406 -1.15820312 31.25585938 C-1.70412109 32.14080078 -2.25003906 33.02574219 -2.8125 33.9375 C-3.34681641 34.81857422 -3.88113281 35.69964844 -4.43164062 36.60742188 C-5.47149402 38.31493022 -6.51955002 40.01747657 -7.57666016 41.71435547 C-8.4458766 43.11017097 -9.30295413 44.51376134 -10.13818359 45.93017578 C-11.63697155 48.38613591 -12.51673843 49.81206494 -15.25 50.875 C-15.8275 50.91625 -16.405 50.9575 -17 51 C-11.94562502 40.15158541 -11.94562502 40.15158541 -8.41015625 35.44921875 C-0.07378785 24.10266133 0.49927136 13.86297992 0 0 Z " fill="#14272F" transform="translate(56,12)"/>
<path d="M0 0 C0.65392731 -0.00014603 1.30785461 -0.00029205 1.9815979 -0.0004425 C4.14051646 0.00025351 6.29934848 0.00803131 8.45825195 0.01586914 C9.95612033 0.01773443 11.45398932 0.01915781 12.95185852 0.02015686 C16.89248339 0.02397333 20.83307135 0.03379619 24.77368164 0.04486084 C28.79548646 0.05509367 32.81729724 0.05965849 36.83911133 0.06469727 C44.72910222 0.07541923 52.61906312 0.09248522 60.5090332 0.11352539 C60.5090332 0.44352539 60.5090332 0.77352539 60.5090332 1.11352539 C59.69692886 1.12383286 58.88482452 1.13414032 58.04811096 1.14476013 C50.41066832 1.24256518 42.77330999 1.34505487 35.13600254 1.45286465 C31.20918707 1.50812954 27.28236419 1.56155509 23.35546875 1.61083984 C19.56882478 1.658431 15.78227404 1.71077163 11.99574089 1.76646614 C10.54801682 1.78691357 9.10026717 1.80562263 7.65249825 1.82259941 C5.63139161 1.84659047 3.6103671 1.87722614 1.58935547 1.90820312 C0.43685806 1.92374741 -0.71563934 1.93929169 -1.90306091 1.95530701 C-4.42067269 1.82235171 -4.42067269 1.82235171 -5.4909668 3.11352539 C-5.72171762 4.46099623 -5.90249742 5.81730104 -6.0534668 7.17602539 C-6.2700293 9.12508789 -6.2700293 9.12508789 -6.4909668 11.11352539 C-7.4809668 11.11352539 -8.4709668 11.11352539 -9.4909668 11.11352539 C-9.4909668 7.81352539 -9.4909668 4.51352539 -9.4909668 1.11352539 C-6.11118122 -0.0130698 -3.56280543 -0.00668444 0 0 Z " fill="#2A2943" transform="translate(41.490966796875,88.886474609375)"/>
<path d="M0 0 C0.99 0.495 0.99 0.495 2 1 C2.33 0.67 2.66 0.34 3 0 C6.96502948 0.45057153 10.35465276 1.39175857 14 3 C14 3.66 14 4.32 14 5 C8.58823529 9 8.58823529 9 6 9 C5.67 9.66 5.34 10.32 5 11 C4.15841464 9.73461631 3.32700252 8.46246221 2.5 7.1875 C1.80390625 6.12595703 1.80390625 6.12595703 1.09375 5.04296875 C0 3 0 3 0 0 Z " fill="#10232A" transform="translate(72,35)"/>
<path d="M0 0 C0.33 4.29 0.66 8.58 1 13 C0.34 13 -0.32 13 -1 13 C-1.05607422 14.26457031 -1.05607422 14.26457031 -1.11328125 15.5546875 C-1.17902344 16.65039062 -1.24476562 17.74609375 -1.3125 18.875 C-1.37050781 19.96554688 -1.42851563 21.05609375 -1.48828125 22.1796875 C-1.65714844 23.11039063 -1.82601562 24.04109375 -2 25 C-2.99 25.66 -3.98 26.32 -5 27 C-4.91944192 22.8741803 -4.80657315 18.74987369 -4.6875 14.625 C-4.66494141 13.449375 -4.64238281 12.27375 -4.61914062 11.0625 C-4.58369141 9.94101562 -4.54824219 8.81953125 -4.51171875 7.6640625 C-4.48553467 6.62717285 -4.45935059 5.5902832 -4.43237305 4.52197266 C-4.28968994 3.68972168 -4.14700684 2.8574707 -4 2 C-1 0 -1 0 0 0 Z " fill="#1A3A31" transform="translate(34,26)"/>
<path d="M0 0 C1.69141656 0.08963062 3.37959602 0.24577676 5.0625 0.4375 C6.44115234 0.59025391 6.44115234 0.59025391 7.84765625 0.74609375 C8.55792969 0.82988281 9.26820312 0.91367187 10 1 C8.68775452 4.93673644 7.08089673 7.22719294 4 10 C4.33 8.68 4.66 7.36 5 6 C1.7 6.33 -1.6 6.66 -5 7 C-5.33 6.34 -5.66 5.68 -6 5 C-5.67 4.34 -5.34 3.68 -5 3 C-4.01 3 -3.02 3 -2 3 C-1.67 2.34 -1.34 1.68 -1 1 C-0.67 0.67 -0.34 0.34 0 0 Z " fill="#133F40" transform="translate(43,60)"/>
<path d="M0 0 C4.06051787 1.35350596 4.64228453 3.27512664 6.75 6.9375 C7.38421875 8.01902344 8.0184375 9.10054687 8.671875 10.21484375 C9.11015625 11.13394531 9.5484375 12.05304687 10 13 C9.67 13.66 9.34 14.32 9 15 C5 10.25 5 10.25 5 8 C2.03 8 -0.94 8 -4 8 C-2.68 5.36 -1.36 2.72 0 0 Z " fill="#11242D" transform="translate(62,48)"/>
<path d="M0 0 C0.33 0 0.66 0 1 0 C1 7.92 1 15.84 1 24 C0.34 24 -0.32 24 -1 24 C-1.33 18.39 -1.66 12.78 -2 7 C-3.32 8.32 -4.64 9.64 -6 11 C-4.55007731 6.89188572 -2.54592427 3.53144334 0 0 Z " fill="#09E1A1" transform="translate(55,11)"/>
<path d="M0 0 C4.16138263 -0.08159574 7.9472484 0.01751476 12 1 C12 1.99 12 2.98 12 4 C10.88625 4.28875 9.7725 4.5775 8.625 4.875 C4.99708908 5.69241329 4.99708908 5.69241329 3 8 C0 3.375 0 3.375 0 0 Z " fill="#134C4C" transform="translate(95,74)"/>
<path d="M0 0 C0.33 0 0.66 0 1 0 C1 6.27 1 12.54 1 19 C1.99 19 2.98 19 4 19 C3.44229839 23.87988912 2.42676981 24.71653774 -1 29 C-0.67 19.43 -0.34 9.86 0 0 Z " fill="#0F0D1B" transform="translate(56,12)"/>
<path d="M0 0 C0.66 0.33 1.32 0.66 2 1 C-0.01355004 5.55698167 -2.18864392 8.76034733 -6 12 C-6.99 12 -7.98 12 -9 12 C-7.75748267 8.27244802 -5.79248421 6.72599649 -3 4 C-1.97186389 2.68824014 -0.95915568 1.3630107 0 0 Z " fill="#1C4A4F" transform="translate(9,84)"/>
<path d="M0 0 C0.33 0 0.66 0 1 0 C1 4.62 1 9.24 1 14 C1.66 14 2.32 14 3 14 C3.66 12.68 4.32 11.36 5 10 C4.44229839 14.87988912 3.42676981 15.71653774 0 20 C0 13.4 0 6.8 0 0 Z " fill="#0A1321" transform="translate(35,24)"/>
<path d="M0 0 C0.33 0 0.66 0 1 0 C1.50423019 5.29441695 0.18923033 7.81413519 -3 12 C-3.66 11.67 -4.32 11.34 -5 11 C-3.77782954 6.95743617 -2.37245704 3.50711041 0 0 Z " fill="#101B24" transform="translate(54,36)"/>
<path d="M0 0 C0.99 0 1.98 0 3 0 C3 3.3 3 6.6 3 10 C2.01 10 1.02 10 0 10 C0 6.7 0 3.4 0 0 Z " fill="#265653" transform="translate(32,90)"/>
<path d="M0 0 C4.72065967 1.54269924 9.41664092 3.07794619 14 5 C14 5.66 14 6.32 14 7 C12.41531323 6.54636829 10.83230076 6.08688548 9.25 5.625 C8.36828125 5.36976562 7.4865625 5.11453125 6.578125 4.8515625 C4.23919428 4.0790066 2.16557438 3.16374324 0 2 C0 1.34 0 0.68 0 0 Z " fill="#005C44" transform="translate(75,32)"/>
<path d="M0 0 C0.33 0 0.66 0 1 0 C1.33 4.29 1.66 8.58 2 13 C1.34 13 0.68 13 0 13 C-0.94738023 10.15785932 -1.13460559 8.32391609 -1.125 5.375 C-1.12757812 4.57835937 -1.13015625 3.78171875 -1.1328125 2.9609375 C-1 1 -1 1 0 0 Z " fill="#604F2B" transform="translate(33,26)"/>
<path d="M0 0 C0.66 0.33 1.32 0.66 2 1 C0.78070272 2.30098717 -0.45092452 3.59042437 -1.6875 4.875 C-2.37199219 5.59429688 -3.05648437 6.31359375 -3.76171875 7.0546875 C-6.09591291 9.08335887 -8.08467634 10.02992733 -11 11 C-7.6189962 6.86378916 -4.33409466 3.18683431 0 0 Z " fill="#013B33" transform="translate(91,18)"/>
<path d="M0 0 C2.31 0 4.62 0 7 0 C7.33 0.99 7.66 1.98 8 3 C7 4 7 4 3.9375 4.0625 C2.968125 4.041875 1.99875 4.02125 1 4 C0.67 2.68 0.34 1.36 0 0 Z " fill="#0B514B" transform="translate(71,71)"/>
<path d="M0 0 C0.66 0.33 1.32 0.66 2 1 C1.43628586 4.26954202 0.50037734 5.82575883 -2 8 C-2.66 7.67 -3.32 7.34 -4 7 C-2.68 4.69 -1.36 2.38 0 0 Z " fill="#181A2A" transform="translate(43,55)"/>
</svg>